<svg xmlns="http://www.w3.org/2000/svg" xmlns:xlink="http://www.w3.org/1999/xlink" width="500" zoomAndPan="magnify" viewBox="0 0 375 374.999991" height="500" preserveAspectRatio="xMidYMid meet" version="1.0"><defs><clipPath id="7f52558c41"><path d="M 135.523438 201.085938 L 206.394531 201.085938 L 206.394531 271.679688 L 135.523438 271.679688 Z M 135.523438 201.085938 " clip-rule="nonzero"/></clipPath><clipPath id="04f970583a"><path d="M 152.773438 201.085938 L 189.003906 201.085938 C 198.53125 201.085938 206.253906 208.808594 206.253906 218.335938 L 206.253906 254.429688 C 206.253906 263.957031 198.53125 271.679688 189.003906 271.679688 L 152.773438 271.679688 C 143.25 271.679688 135.523438 263.957031 135.523438 254.429688 L 135.523438 218.335938 C 135.523438 208.808594 143.25 201.085938 152.773438 201.085938 Z M 152.773438 201.085938 " clip-rule="nonzero"/></clipPath><clipPath id="a16c871444"><path d="M 0.523438 0.0859375 L 71.394531 0.0859375 L 71.394531 70.679688 L 0.523438 70.679688 Z M 0.523438 0.0859375 " clip-rule="nonzero"/></clipPath><clipPath id="2b2042be6a"><path d="M 17.773438 0.0859375 L 54.003906 0.0859375 C 63.53125 0.0859375 71.253906 7.808594 71.253906 17.335938 L 71.253906 53.429688 C 71.253906 62.957031 63.53125 70.679688 54.003906 70.679688 L 17.773438 70.679688 C 8.25 70.679688 0.523438 62.957031 0.523438 53.429688 L 0.523438 17.335938 C 0.523438 7.808594 8.25 0.0859375 17.773438 0.0859375 Z M 17.773438 0.0859375 " clip-rule="nonzero"/></clipPath><clipPath id="5bfa12cd0c"><rect x="0" width="72" y="0" height="71"/></clipPath><clipPath id="f3bee58c95"><path d="M 135.523438 201.085938 L 206.023438 201.085938 L 206.023438 271.585938 L 135.523438 271.585938 Z M 135.523438 201.085938 " clip-rule="nonzero"/></clipPath><clipPath id="1e140cae68"><path d="M 152.773438 201.085938 L 189 201.085938 C 198.527344 201.085938 206.246094 208.808594 206.246094 218.335938 L 206.246094 254.425781 C 206.246094 263.953125 198.527344 271.675781 189 271.675781 L 152.773438 271.675781 C 143.246094 271.675781 135.523438 263.953125 135.523438 254.425781 L 135.523438 218.335938 C 135.523438 208.808594 143.246094 201.085938 152.773438 201.085938 Z M 152.773438 201.085938 " clip-rule="nonzero"/></clipPath><clipPath id="76f90e979e"><path d="M 169.058594 158.863281 L 248.128906 158.863281 L 248.128906 237.625 L 169.058594 237.625 Z M 169.058594 158.863281 " clip-rule="nonzero"/></clipPath><clipPath id="8b29769068"><path d="M 186.308594 158.863281 L 230.761719 158.863281 C 240.289062 158.863281 248.011719 166.585938 248.011719 176.113281 L 248.011719 220.375 C 248.011719 229.902344 240.289062 237.625 230.761719 237.625 L 186.308594 237.625 C 176.78125 237.625 169.058594 229.902344 169.058594 220.375 L 169.058594 176.113281 C 169.058594 166.585938 176.78125 158.863281 186.308594 158.863281 Z M 186.308594 158.863281 " clip-rule="nonzero"/></clipPath><clipPath id="4a0c8758d1"><path d="M 0.0585938 0.863281 L 79.128906 0.863281 L 79.128906 79.625 L 0.0585938 79.625 Z M 0.0585938 0.863281 " clip-rule="nonzero"/></clipPath><clipPath id="2d7c06cdd3"><path d="M 17.308594 0.863281 L 61.761719 0.863281 C 71.289062 0.863281 79.011719 8.585938 79.011719 18.113281 L 79.011719 62.375 C 79.011719 71.902344 71.289062 79.625 61.761719 79.625 L 17.308594 79.625 C 7.78125 79.625 0.0585938 71.902344 0.0585938 62.375 L 0.0585938 18.113281 C 0.0585938 8.585938 7.78125 0.863281 17.308594 0.863281 Z M 17.308594 0.863281 " clip-rule="nonzero"/></clipPath><clipPath id="e5d8a5e919"><rect x="0" width="80" y="0" height="80"/></clipPath><clipPath id="f29a24676c"><path d="M 169.0625 158.863281 L 247.808594 158.863281 L 247.808594 237.613281 L 169.0625 237.613281 Z M 169.0625 158.863281 " clip-rule="nonzero"/></clipPath><clipPath id="24a26c70fa"><path d="M 186.308594 158.863281 L 230.757812 158.863281 C 240.28125 158.863281 248.003906 166.585938 248.003906 176.109375 L 248.003906 220.367188 C 248.003906 229.890625 240.28125 237.613281 230.757812 237.613281 L 186.308594 237.613281 C 176.785156 237.613281 169.0625 229.890625 169.0625 220.367188 L 169.0625 176.109375 C 169.0625 166.585938 176.785156 158.863281 186.308594 158.863281 Z M 186.308594 158.863281 " clip-rule="nonzero"/></clipPath><clipPath id="e621ce7983"><path d="M 126.988281 103.320312 L 214.792969 103.320312 L 214.792969 191.46875 L 126.988281 191.46875 Z M 126.988281 103.320312 " clip-rule="nonzero"/></clipPath><clipPath id="f64677cec0"><path d="M 144.238281 103.320312 L 197.542969 103.320312 C 207.070312 103.320312 214.792969 111.042969 214.792969 120.570312 L 214.792969 174.046875 C 214.792969 183.574219 207.070312 191.296875 197.542969 191.296875 L 144.238281 191.296875 C 134.710938 191.296875 126.988281 183.574219 126.988281 174.046875 L 126.988281 120.570312 C 126.988281 111.042969 134.710938 103.320312 144.238281 103.320312 Z M 144.238281 103.320312 " clip-rule="nonzero"/></clipPath><clipPath id="5cba365c27"><path d="M 0.988281 0.320312 L 88.792969 0.320312 L 88.792969 88.46875 L 0.988281 88.46875 Z M 0.988281 0.320312 " clip-rule="nonzero"/></clipPath><clipPath id="5d62b17ebf"><path d="M 18.238281 0.320312 L 71.542969 0.320312 C 81.070312 0.320312 88.792969 8.042969 88.792969 17.570312 L 88.792969 71.046875 C 88.792969 80.574219 81.070312 88.296875 71.542969 88.296875 L 18.238281 88.296875 C 8.710938 88.296875 0.988281 80.574219 0.988281 71.046875 L 0.988281 17.570312 C 0.988281 8.042969 8.710938 0.320312 18.238281 0.320312 Z M 18.238281 0.320312 " clip-rule="nonzero"/></clipPath><clipPath id="9d22732394"><rect x="0" width="89" y="0" height="89"/></clipPath><clipPath id="406813e987"><path d="M 126.988281 103.324219 L 214.738281 103.324219 L 214.738281 191.070312 L 126.988281 191.070312 Z M 126.988281 103.324219 " clip-rule="nonzero"/></clipPath><clipPath id="30998a4abf"><path d="M 144.238281 103.324219 L 197.535156 103.324219 C 207.0625 103.324219 214.785156 111.046875 214.785156 120.570312 L 214.785156 174.042969 C 214.785156 183.566406 207.0625 191.289062 197.535156 191.289062 L 144.238281 191.289062 C 134.710938 191.289062 126.988281 183.566406 126.988281 174.042969 L 126.988281 120.570312 C 126.988281 111.046875 134.710938 103.324219 144.238281 103.324219 Z M 144.238281 103.324219 " clip-rule="nonzero"/></clipPath></defs><rect x="-37.5" width="450" fill="#ffffff" y="-37.499999" height="449.999989" fill-opacity="1"/><rect x="-37.5" width="450" fill="#ffffff" y="-37.499999" height="449.999989" fill-opacity="1"/><g clip-path="url(#7f52558c41)"><g clip-path="url(#04f970583a)"><g transform="matrix(1, 0, 0, 1, 135, 201)"><g clip-path="url(#5bfa12cd0c)"><g clip-path="url(#a16c871444)"><g clip-path="url(#2b2042be6a)"><path fill="#7a9cc6" d="M 0.523438 0.0859375 L 71.121094 0.0859375 L 71.121094 70.679688 L 0.523438 70.679688 Z M 0.523438 0.0859375 " fill-opacity="1" fill-rule="nonzero"/></g></g></g></g></g></g><g clip-path="url(#f3bee58c95)"><g clip-path="url(#1e140cae68)"><path stroke-linecap="butt" transform="matrix(0.75, 0, 0, 0.75, 135.525274, 201.087628)" fill="none" stroke-linejoin="miter" d="M 22.997553 -0.00225346 L 71.299639 -0.00225346 C 84.002765 -0.00225346 94.294433 10.294622 94.294433 22.997748 L 94.294433 71.117543 C 94.294433 83.820669 84.002765 94.117544 71.299639 94.117544 L 22.997553 94.117544 C 10.294427 94.117544 -0.00244867 83.820669 -0.00244867 71.117543 L -0.00244867 22.997748 C -0.00244867 10.294622 10.294427 -0.00225346 22.997553 -0.00225346 Z M 22.997553 -0.00225346 " stroke="#ffffff" stroke-width="4" stroke-opacity="1" stroke-miterlimit="4"/></g></g><g clip-path="url(#76f90e979e)"><g clip-path="url(#8b29769068)"><g transform="matrix(1, 0, 0, 1, 169, 158)"><g clip-path="url(#e5d8a5e919)"><g clip-path="url(#4a0c8758d1)"><g clip-path="url(#2d7c06cdd3)"><path fill="#3b82f6" d="M 0.0585938 0.863281 L 79.128906 0.863281 L 79.128906 79.625 L 0.0585938 79.625 Z M 0.0585938 0.863281 " fill-opacity="1" fill-rule="nonzero"/></g></g></g></g></g></g><g clip-path="url(#f29a24676c)"><g clip-path="url(#24a26c70fa)"><path stroke-linecap="butt" transform="matrix(0.75, 0, 0, 0.75, 169.061991, 158.863701)" fill="none" stroke-linejoin="miter" d="M 22.995472 -0.000559357 L 82.261101 -0.000559357 C 94.959018 -0.000559357 105.255894 10.296316 105.255894 22.994234 L 105.255894 82.004654 C 105.255894 94.702572 94.959018 104.999448 82.261101 104.999448 L 22.995472 104.999448 C 10.297554 104.999448 0.000678669 94.702572 0.000678669 82.004654 L 0.000678669 22.994234 C 0.000678669 10.296316 10.297554 -0.000559357 22.995472 -0.000559357 Z M 22.995472 -0.000559357 " stroke="#ffffff" stroke-width="4" stroke-opacity="1" stroke-miterlimit="4"/></g></g><g clip-path="url(#e621ce7983)"><g clip-path="url(#f64677cec0)"><g transform="matrix(1, 0, 0, 1, 126, 103)"><g clip-path="url(#9d22732394)"><g clip-path="url(#5cba365c27)"><g clip-path="url(#5d62b17ebf)"><path fill="#0a4db8" d="M 0.988281 0.320312 L 88.792969 0.320312 L 88.792969 88.125 L 0.988281 88.125 Z M 0.988281 0.320312 " fill-opacity="1" fill-rule="nonzero"/></g></g></g></g></g></g><g clip-path="url(#406813e987)"><g clip-path="url(#30998a4abf)"><path stroke-linecap="butt" transform="matrix(0.75, 0, 0, 0.75, 126.987961, 103.322624)" fill="none" stroke-linejoin="miter" d="M 23.00043 0.00212685 L 94.062939 0.00212685 C 106.766066 0.00212685 117.062942 10.299003 117.062942 22.996921 L 117.062942 94.293806 C 117.062942 106.991724 106.766066 117.2886 94.062939 117.2886 L 23.00043 117.2886 C 10.297303 117.2886 0.000427052 106.991724 0.000427052 94.293806 L 0.000427052 22.996921 C 0.000427052 10.299003 10.297303 0.00212685 23.00043 0.00212685 Z M 23.00043 0.00212685 " stroke="#ffffff" stroke-width="4" stroke-opacity="1" stroke-miterlimit="4"/></g></g></svg>