<svg xmlns="http://www.w3.org/2000/svg" width="500" height="500" viewBox="0 0 375 375" fill="none">
  <g opacity="0.8">
    <path d="M152.77 201.086H189C198.53 201.086 206.25 208.81 206.25 218.34V254.43C206.25 263.96 198.53 271.68 189 271.68H152.77C143.25 271.68 135.52 263.96 135.52 254.43V218.34C135.52 208.81 143.25 201.086 152.77 201.086Z" fill="#06b6d4"/>
    <path d="M152.77 202.586H189C197.7 202.586 204.75 209.64 204.75 218.34V254.43C204.75 263.13 197.7 270.18 189 270.18H152.77C144.07 270.18 137.02 263.13 137.02 254.43V218.34C137.02 209.64 144.07 202.586 152.77 202.586Z" stroke="#0891b2" stroke-width="3"/>
  </g>
  
  <g opacity="0.9">
    <path d="M186.31 158.863H230.76C240.29 158.863 248.01 166.59 248.01 176.11V220.38C248.01 229.9 240.29 237.63 230.76 237.63H186.31C176.78 237.63 169.06 229.9 169.06 220.38V176.11C169.06 166.59 176.78 158.863 186.31 158.863Z" fill="#06b6d4"/>
    <path d="M186.31 160.363H230.76C239.46 160.363 246.51 167.42 246.51 176.11V220.38C246.51 229.07 239.46 236.13 230.76 236.13H186.31C177.61 236.13 170.56 229.07 170.56 220.38V176.11C170.56 167.42 177.61 160.363 186.31 160.363Z" stroke="#0891b2" stroke-width="3"/>
  </g>
  
  <g>
    <path d="M144.24 103.32H197.54C207.07 103.32 214.79 111.04 214.79 120.57V174.05C214.79 183.57 207.07 191.3 197.54 191.3H144.24C134.71 191.3 126.99 183.57 126.99 174.05V120.57C126.99 111.04 134.71 103.32 144.24 103.32Z" fill="#06b6d4"/>
    <path d="M144.24 104.82H197.54C206.24 104.82 213.29 111.87 213.29 120.57V174.05C213.29 182.75 206.24 189.8 197.54 189.8H144.24C135.54 189.8 128.49 182.75 128.49 174.05V120.57C128.49 111.87 135.54 104.82 144.24 104.82Z" stroke="#0891b2" stroke-width="3"/>
  </g>
</svg>
