<svg xmlns="http://www.w3.org/2000/svg" width="500" height="500" viewBox="0 0 375 375">
  <defs>
    <clipPath id="a">
      <path d="M135.523 201.086h70.871v70.594h-70.871z"/>
    </clipPath>
    <clipPath id="b">
      <path d="M152.773 201.086H189c9.528 0 17.25 7.723 17.25 17.25v36.094c0 9.527-7.722 17.25-17.25 17.25h-36.227c-9.523 0-17.25-7.723-17.25-17.25v-36.094c0-9.527 7.727-17.25 17.25-17.25z"/>
    </clipPath>
    <clipPath id="c">
      <path d="M.523.086h70.872V70.68H.523z"/>
    </clipPath>
    <clipPath id="d">
      <path d="M17.773.086h36.23c9.528 0 17.25 7.723 17.25 17.25v36.094c0 9.527-7.722 17.25-17.25 17.25h-36.23c-9.523 0-17.25-7.723-17.25-17.25V17.336c0-9.527 7.727-17.25 17.25-17.25z"/>
    </clipPath>
    <clipPath id="e">
      <path d="M0 0h72v71H0z"/>
    </clipPath>
    <clipPath id="f">
      <path d="M135.523 201.086h70.5v70.5h-70.5z"/>
    </clipPath>
    <clipPath id="g">
      <path d="M152.773 201.086H189c9.528 0 17.246 7.723 17.246 17.25v36.09c0 9.526-7.718 17.25-17.246 17.25h-36.227c-9.523 0-17.25-7.724-17.25-17.25v-36.09c0-9.527 7.727-17.25 17.25-17.25z"/>
    </clipPath>
    <clipPath id="h">
      <path d="M169.059 158.863h79.07v78.762h-79.07z"/>
    </clipPath>
    <clipPath id="i">
      <path d="M186.309 158.863h44.453c9.527 0 17.25 7.723 17.25 17.25v44.262c0 9.527-7.723 17.25-17.25 17.25h-44.453c-9.528 0-17.25-7.723-17.25-17.25V176.113c0-9.527 7.722-17.25 17.25-17.25z"/>
    </clipPath>
    <clipPath id="j">
      <path d="M.059.863h79.07v78.762H.059z"/>
    </clipPath>
    <clipPath id="k">
      <path d="M17.309.863h44.453c9.527 0 17.25 7.723 17.25 17.25v44.262c0 9.527-7.723 17.25-17.25 17.25H17.309c-9.528 0-17.25-7.723-17.25-17.25V18.113c0-9.527 7.722-17.25 17.25-17.25z"/>
    </clipPath>
    <clipPath id="l">
      <path d="M0 0h80v80H0z"/>
    </clipPath>
    <clipPath id="m">
      <path d="M169.063 158.863h78.746v78.75h-78.746z"/>
    </clipPath>
    <clipPath id="n">
      <path d="M186.309 158.863h44.449c9.523 0 17.246 7.723 17.246 17.246v44.258c0 9.524-7.723 17.246-17.246 17.246h-44.449c-9.524 0-17.246-7.722-17.246-17.246v-44.258c0-9.523 7.722-17.246 17.246-17.246z"/>
    </clipPath>
    <clipPath id="o">
      <path d="M126.988 103.32h87.805v88.149h-87.805z"/>
    </clipPath>
    <clipPath id="p">
      <path d="M144.238 103.32h53.305c9.527 0 17.25 7.723 17.25 17.25v53.477c0 9.527-7.723 17.25-17.25 17.25h-53.305c-9.527 0-17.25-7.723-17.25-17.25V120.57c0-9.527 7.723-17.25 17.25-17.25z"/>
    </clipPath>
    <clipPath id="q">
      <path d="M.988.32h87.805v88.149H.988z"/>
    </clipPath>
    <clipPath id="r">
      <path d="M18.238.32h53.305c9.527 0 17.25 7.723 17.25 17.25v53.477c0 9.527-7.723 17.25-17.25 17.25H18.238c-9.527 0-17.25-7.723-17.25-17.25V17.57c0-9.527 7.723-17.25 17.25-17.25z"/>
    </clipPath>
    <clipPath id="s">
      <path d="M0 0h89v89H0z"/>
    </clipPath>
    <clipPath id="t">
      <path d="M126.988 103.324h87.75v87.746h-87.75z"/>
    </clipPath>
    <clipPath id="u">
      <path d="M144.238 103.324h53.297c9.527 0 17.25 7.723 17.25 17.246v53.473c0 9.523-7.723 17.246-17.25 17.246h-53.297c-9.527 0-17.25-7.723-17.25-17.246v-53.473c0-9.523 7.723-17.246 17.25-17.246z"/>
    </clipPath>
  </defs>
  <g clip-path="url(#a)">
    <g clip-path="url(#b)" transform="translate(135 201)">
      <g clip-path="url(#e)">
        <g clip-path="url(#c)">
          <g clip-path="url(#d)">
            <path fill="#7a9cc6" d="M.523.086h70.598v70.594H.523z"/>
          </g>
        </g>
      </g>
    </g>
  </g>
  <g clip-path="url(#f)">
    <g clip-path="url(#g)">
      <path fill="none" stroke="#fff" stroke-width="4" d="M22.998-.002h48.302c12.703 0 22.994 10.296 22.994 23v48.12C94.294 83.82 84.003 94.117 71.3 94.117H22.998c-12.704 0-22.999-10.297-22.999-23V22.998c0-12.704 10.295-22.999 22.999-22.999z" transform="scale(.75) translate(180.7 268.117)"/>
    </g>
  </g>
  <g clip-path="url(#h)">
    <g clip-path="url(#i)" transform="translate(169 158)">
      <g clip-path="url(#l)">
        <g clip-path="url(#j)">
          <g clip-path="url(#k)">
            <path fill="#3b82f6" d="M.059.863h79.07v78.762H.059z"/>
          </g>
        </g>
      </g>
    </g>
  </g>
  <g clip-path="url(#m)">
    <g clip-path="url(#n)">
      <path fill="none" stroke="#fff" stroke-width="4" d="M22.995-.001h59.266c12.698 0 22.995 10.297 22.995 22.995v59.01C105.256 94.703 94.959 105 82.261 105H22.995C10.298 105 .001 94.703.001 82.005v-59.01C.001 10.296 10.298-.001 22.995-.001z" transform="scale(.75) translate(225.416 211.818)"/>
    </g>
  </g>
  <g clip-path="url(#o)">
    <g clip-path="url(#p)" transform="translate(126 103)">
      <g clip-path="url(#s)">
        <g clip-path="url(#q)">
          <g clip-path="url(#r)">
            <path fill="#0a4db8" d="M.988.32h87.805v87.805H.988z"/>
          </g>
        </g>
      </g>
    </g>
  </g>
  <g clip-path="url(#t)">
    <g clip-path="url(#u)">
      <path fill="none" stroke="#fff" stroke-width="4" d="M23.001.002h71.062c12.703 0 23 10.297 23 22.995v71.297c0 12.698-10.297 22.995-23 22.995H23.001C10.297 117.289.001 106.992.001 94.294V22.997C.001 10.299 10.297.002 23.001.002z" transform="scale(.75) translate(169.317 137.763)"/>
    </g>
  </g>
</svg>
